<svg xmlns="http://www.w3.org/2000/svg" viewBox="0 0 100 100"><defs><style>.cls-1{fill:#ffa68f}.cls-2{fill:#ff8578}.cls-4{fill:#fb5252}.cls-5{fill:#4949e7}</style></defs><g id="seleccionados_expandidos" data-name="seleccionados expandidos"><path class="cls-1" d="M0 31.43v-.01.01zM79.06 44.68c-.73-3.37-1.37-6.28-1.65-8.28-.62-4.31-.33-10.39-.07-15.76.21-4.41.41-8.57.07-10.86A33.35 33.35 0 0 0 74.58.65a3.57 3.57 0 0 1-.16-.65H.08v30.51L0 30.44v.25c0 .05 0 0 0 0v.11h.05a.08.08 0 0 0 0-.05v.51c0 .07 0 0 0 0v.07l-.05.02v.08a.16.16 0 0 0 0 .06v.32-.37V100h71.31a10.14 10.14 0 0 1-.66-1.94c-13.73-.28-41.6-4.8-49.11-15.74-1.41-.63-2.47-1.26-2.65-1.8a1.5 1.5 0 0 1 2.42-1.59 84.92 84.92 0 0 0 32 6.82c13.92 0 24.53-4.83 28.41-12.93 2.4-4.92-.64-18.89-2.66-28.14z"/><path class="cls-2" d="M0 31.44v4.05a48.1 48.1 0 0 1 6.47-11C14.1 14.92 27.64 11.75 32 0H.08v30.51L0 30.44v.25c0 .05 0 0 0 0v.11h.05a.08.08 0 0 0 0-.05v.51c0 .07 0 0 0 0v.07l-.05.02v.08a.16.16 0 0 0 0 .06v.32z"/><path class="cls-1" d="M0 30.88v.05a.19.19 0 0 1 0 .2v.22a3.84 3.84 0 0 1 .05-.48z"/><path d="M83.23 0c3.28 7.3-.56 17.08-2.95 22-.23 4.93-.43 10.28.1 14 .27 1.89.89 4.75 1.61 8.06 2.23 10.23 5.28 24.23 2.48 30.08a23.27 23.27 0 0 1-10.7 10.39c-.42 3.72-.75 12.15.82 15.47H100V0z" fill="#b3b3fc"/><path class="cls-2" d="M70.65 98.06c-.92-3.75-.51-9-.13-12.09a48 48 0 0 1-17.16 2.78 87.51 87.51 0 0 1-23.22-3.48 74.58 74.58 0 0 1-8.6-3C29 93.26 56.92 97.78 70.65 98.06z"/><path class="cls-1" d="M.07 30.87zM0 30.36v.06s.11 0 0-.06zM.32 29.51a1.1 1.1 0 0 0-.24.13v.24c.12-.13.26-.16.3-.33zM.3 29.48zM2.94 29.4c-.07 0 0 .09 0 .14s0 0-.06 0a7.26 7.26 0 0 0-.07 1.13c.07-.39.16-.76.26-1.12l.05-.15-.12.08s0-.05-.06-.08zM.39 29.33c-.09 0 0-.17-.08-.14s-.23 0-.11.17c0-.05.09 0 .14 0s.08 0 0 .12c.03-.04.04-.09.05-.15zM.21 30.25c0 .06-.11 0 0 .12zM.18 30.16zM.14 30.33z"/><path class="cls-2" d="M.2 32.09c0-.06-.11 0-.05.06s.07-.02.05-.06zM.13 30.84v.08c0 .03.12-.06.13-.15l-.11-.1v.1l-.02.07zM0 30.93v.2a.19.19 0 0 0 0-.2zM.24 31.09c.06.12-.05 0-.07 0s-.17 0-.1.11 0-.07.07 0-.1.11-.14.15v.07a.16.16 0 0 0 0 .07c.22-.04.41-.28.24-.4zM.21 30.18h.08a.15.15 0 0 0 0-.12zM0 30.64v0zM.1 30.83H0v.07a.08.08 0 0 1 .07 0zM.36 29.5z"/><path class="cls-4" d="M16.2 1.49a1.5 1.5 0 0 0-1.14 1.79 8 8 0 0 1-5.35 9.41 11.53 11.53 0 0 0-3.55 1.86c.44-.73.89-1.42 1.29-2 .5-.77.94-1.44 1.24-2 1.3-2.45.94-5.94.9-6.32a1.5 1.5 0 0 0-3 .34A9.54 9.54 0 0 1 6 9.11c-.24.45-.64 1.06-1.1 1.77-2 3-5 7.63-4.19 12.47a1.5 1.5 0 0 0 1.43 1.25h.1a1.5 1.5 0 0 0 1.44-1.07c1.21-4 3.8-7 6.93-8A11 11 0 0 0 18 2.63a1.5 1.5 0 0 0-1.8-1.14zM2.32 27.94h-.06a1.21 1.21 0 0 0-.31-.13h-.34a1.23 1.23 0 0 0-1 .54v.06a1.23 1.23 0 0 0-.13.31V29.52c0 .2-.2.4-.2.61 0 .41-.15.84-.15 1.27H0c1 4.18 2.55 9 2.66 9.25a1.37 1.37 0 0 0 1.23.75 1.6 1.6 0 0 0 .38 0 1.27 1.27 0 0 0 .92-1.4c0-.06-.76-6.11.27-9.8s6.46-7.92 7.84-8.78a1.25 1.25 0 0 0-.86-2.29 1.27 1.27 0 0 0-.31.11 1.17 1.17 0 0 0-.14.05 23.64 23.64 0 0 0-2.59 2l-.06.05c-.59.5-1.21 1.07-1.82 1.69l-.1.1-.08.08-.08.08c-.42.43-.83.87-1.22 1.34l-.1.13q-.31.37-.6.74l-.14.19q-.27.37-.52.74t-.68 1l-.12.21-.07.13a10.09 10.09 0 0 0-.48 1l-.07.23-.11.33v.1l-.05.15c-.1.36-.19.73-.26 1.12a7.26 7.26 0 0 1 .07-1.13v-.29a1.2 1.2 0 0 0 0-.31 1.27 1.27 0 0 0 0-.2 1.23 1.23 0 0 0-.06-.15A1.24 1.24 0 0 0 2.4 28zM23 22.31a1.24 1.24 0 0 0 .61.16 1.26 1.26 0 0 0 1.09-.63c.06-.11 1.6-2.7 6.17-3.45a7.11 7.11 0 0 1 3.49.09 1.1 1.1 0 0 0 1.25-.48c.38-.58.72-1.3.28-1.55-1-.57-2.7-1-5.47-.55-5.85 1-7.87 4.55-8 4.7a1.24 1.24 0 0 0 .58 1.71zM63.19 20.21a1.25 1.25 0 0 0 1.69-.52C67.36 15 73.15 14 73.21 14a1.25 1.25 0 0 0-.38-2.47c-.29 0-7.08 1.15-10.16 7a1.25 1.25 0 0 0 .52 1.68z"/><ellipse class="cls-5" cx="31" cy="31.82" rx="2.37" ry="2.87"/><ellipse class="cls-5" cx="66.32" cy="30.18" rx="2.08" ry="2.64"/><path d="M59.32 54.48a9.67 9.67 0 0 0 3.55.71 6.65 6.65 0 0 0 3.13-.76c2.53-1.36 3.56-4.16 2.77-7.49a1.64 1.64 0 0 0-.74-1.06 2.5 2.5 0 0 0-2-.07A4.91 4.91 0 0 1 64 46c-.93-.16-2-2.73-2.3-4.94a1.25 1.25 0 0 0-2.47.38c.16 1.08 1.14 6.48 4.35 7a7.06 7.06 0 0 0 3-.19 3.63 3.63 0 0 1-1.66 4c-1.95 1-4.51 0-4.53 0a1.25 1.25 0 0 0-1 2.29z" fill="#8080f1"/><path d="M43.08 61.68a8.81 8.81 0 0 0 8.13 5 11.33 11.33 0 0 0 1.48-.1 1.25 1.25 0 1 0-.33-2.48 6.42 6.42 0 0 1-7-3.4 1.25 1.25 0 0 0-2.3 1z" fill="#5f5ff6"/><path class="cls-4" d="M73.77 84.53a23.27 23.27 0 0 0 10.71-10.41C87.27 68.27 84.22 54.27 82 44c-.72-3.31-1.34-6.17-1.61-8.06-.53-3.72-.33-9.08-.1-14 2.39-4.89 6.23-14.68 2.95-22h-8.8a3.58 3.58 0 0 0 .16.65 33.06 33.06 0 0 1 2.82 9.12c.34 2.29.14 6.46-.07 10.87-.26 5.37-.55 11.46.07 15.77.29 2 .92 4.91 1.65 8.28 2 9.25 5.06 23.23 2.71 28.14-3.87 8.1-14.49 12.93-28.41 12.93a84.92 84.92 0 0 1-32-6.82 1.5 1.5 0 0 0-2.42 1.59c.18.53 1.24 1.17 2.65 1.8a74.58 74.58 0 0 0 8.6 3 87.51 87.51 0 0 0 23.22 3.48A48 48 0 0 0 70.52 86c-.38 3.13-.79 8.34.13 12.09a10.14 10.14 0 0 0 .66 1.94h3.28c-1.59-3.34-1.24-11.78-.82-15.5z"/></g></svg>