<svg xmlns="http://www.w3.org/2000/svg" viewBox="0 0 100 100"><defs><style>.cls-4{fill:#2c8cf4}.cls-5{fill:#0161cd}.cls-6{fill:#164372}</style></defs><g id="seleccionados_expandidos" data-name="seleccionados expandidos"><path d="M90.24 0c1.08 9.74-5.51 19.31-13.8 26 0 .28 0 .56.05.85.66 6 3.22 11.6 5.69 17.06 1.12 2.47 2.28 5 3.23 7.56v.13c3.14 11.4-.89 23.12-10.49 30.58a34.31 34.31 0 0 1-7.65 4 50.49 50.49 0 0 0-6.33 3 2.22 2.22 0 0 0-.45 1.69 47.26 47.26 0 0 0 2.14 7.46l.57 1.66H100V0z" fill="#ffa68f"/><path d="M2.54 71.05c14.39 13.36 34 20.77 54.21 17.27l1.34-.26c2.43-.47 6.3-2.35 8.53-3.28 2.54-1.06 4.44-3.46 6.48-5 8.59-6.68 12.22-17.16 9.47-27.34-.91-2.41-2-4.79-3.12-7.31-2.57-5.67-5.22-11.54-5.94-18a28.6 28.6 0 0 1 .18-6.9h-.16A1.5 1.5 0 0 1 72 19c-1.24-7.89-6.35-9.59-8.5-10-3.23-.55-6.61.6-7.69 2.61a1.5 1.5 0 1 1-2.64-1.42C54.88 7.01 59.43 5.27 64 6.04c5.17.96 9 4.65 10.51 10.19C76 10.42 78.92 5 81.65 0H0v100h18.92A92.54 92.54 0 0 1 6.28 80.75a49.08 49.08 0 0 1-3.74-9.7z" fill="#5eb2fc"/><path d="M84.64.78c-4.33 8-8.79 16.17-8.2 25.22 8.29-6.7 14.88-16.26 13.8-26H85a1.48 1.48 0 0 1-.14.41z" fill="#8080f1"/><path class="cls-4" d="M22.17 40.81a10.27 10.27 0 0 0-7.06 1.66 3.85 3.85 0 0 0 0 6.58 14.59 14.59 0 0 0 10.81 1.87 3.72 3.72 0 0 0 2.69-3.54 5.73 5.73 0 0 0-.38-2.3v-.12c-.78-2.75-3.37-4.07-6.06-4.15zM64.08 47.14a3.59 3.59 0 0 0-.54.79 3.94 3.94 0 0 0-1.19 2.32c-.34 2.54 1.53 4.27 3.91 4.51a19.08 19.08 0 0 0 6.79-.67c2-.52 3.5-3.34 2.11-5.18a8 8 0 0 0-5-3.31c-1.99-.38-4.62-.07-6.08 1.54z"/><path class="cls-4" d="M60.5 90.88c0-.8.2-.8.61-1.27a47.3 47.3 0 0 1 6.21-2.83 36.45 36.45 0 0 0 7.61-4.6C84.52 74.72 88.55 63 85.45 51.61v-.13c-.95-2.53-2.1-5.09-3.23-7.56-2.47-5.46-5-11.1-5.69-17.06 0-.28 0-.57-.05-.85-.59-9.05 3.87-17.27 8.2-25.22l.2-.37A1.48 1.48 0 0 0 85 0h-3.35C78.92 5 76 10.42 74.51 16.23a20 20 0 0 1 .49 2.32 1.5 1.5 0 0 1-1.25 1.71h-.08a28.6 28.6 0 0 0-.18 6.9c.72 6.45 3.37 12.31 5.94 18 1.14 2.52 2.22 4.9 3.13 7.31 2.75 10.18-.88 20.66-9.47 27.34a69.15 69.15 0 0 1-8.26 5.42 65.5 65.5 0 0 1-8.09 3.11c-20.16 3.5-39.82-3.9-54.21-17.27a49.08 49.08 0 0 0 3.74 9.7A92.54 92.54 0 0 0 18.92 100h44.29l-.57-1.66a47.26 47.26 0 0 1-2.14-7.46z"/><path class="cls-5" d="M30.3 64.7a1.5 1.5 0 0 0 .59 2c4.98 2.8 11.8 3.3 15.85 3.3 1.94 0 3.24-.11 3.39-.12a1.5 1.5 0 0 0-.26-3c-.11 0-11 .89-17.53-2.74a1.5 1.5 0 0 0-2.04.56z"/><ellipse class="cls-6" cx="29.34" cy="30.33" rx="2.08" ry="2.64"/><ellipse class="cls-6" cx="63.81" cy="31.17" rx="2.08" ry="2.64"/><path class="cls-4" d="M51.81 56.2c-2.29-.09-5.56-1.84-7.92-4a1.53 1.53 0 0 0-2.26.19 1.5 1.5 0 0 0 .37 2.16c1.79 1.14 6.37 4.6 10 4.54a4.64 4.64 0 0 0 4.56-3.46c1.8-7-7.87-18.15-4.85-20.4.66-.5.31-1.52-.54-1.77s-1.71.93-2 1.72c-2 6.29 6.86 14.33 4.87 19.48a2.44 2.44 0 0 1-2.23 1.54z"/><path class="cls-5" d="M9.71 18.27a1.5 1.5 0 0 0 2-.83C13 14 16.1 11.56 20.29 10.5c5.44-1.39 11.94-.14 15.8 3A1.5 1.5 0 0 0 38 11.21c-4.63-3.8-12-5.26-18.45-3.62C14.41 8.9 10.62 12 8.88 16.32a1.5 1.5 0 0 0 .83 1.95zM64.06 6.1c-4.57-.77-9.13 1-10.83 4.15a1.5 1.5 0 1 0 2.64 1.42c1.08-2 4.46-3.16 7.69-2.61 2.14.36 7.26 2.06 8.5 10a1.5 1.5 0 0 0 1.48 1.27h.23A1.5 1.5 0 0 0 75 18.55a20 20 0 0 0-.51-2.32C73 10.69 69.17 7 64.06 6.1z"/></g></svg>