<svg xmlns="http://www.w3.org/2000/svg" viewBox="0 0 100 100"><defs><style>.cls-3{fill:#c7ebff}.cls-5{fill:#2c8cf4}.cls-7{fill:#202095}</style></defs><g id="seleccionados_expandidos" data-name="seleccionados expandidos"><path d="M37.29 90.58c-2.67-.19-5.14-.45-7.3-.74-7.35-1-12.66-4.79-15.64-11.5s-.95-17 .07-24c1.2-8.31 2.16-14.44 4-22.41 1.63-7-1.42-14.49-1.12-21.61A55.14 55.14 0 0 1 18.65 0H-1v101h39.77c.83-4 .72-7.29-1.48-10.42z" fill="#fb5252"/><path d="M83.89 87.25c.35-.71.73-1.47 1.1-2.39-11.83 5.95-33 6.72-47.71 5.66 2.2 3.13 2.31 6.64 1.48 10.26 0 .12-.05.22-.08.22h35.93a61 61 0 0 0 9.28-13.75z" fill="#92cdfa"/><path class="cls-3" d="M99.86-1a14.63 14.63 0 0 0 .47 1.57V-1zM84.16 4.28A46.92 46.92 0 0 1 82.61-1H18.75c0 .17-.06.33-.1.5a63.84 63.84 0 0 0-1.34 10.56c-.31 7.12 2.76 14.84 1.12 21.87-1.85 8-2.81 14.1-4 22.41-1 7-3 17.31-.07 24S22.65 88.85 30 89.83c2.15.29 4.62.54 7.3.73 14.7 1.06 35.86.33 47.7-5.61-.38.92-.75 1.59-1.1 2.3A61 61 0 0 1 74.61 101H99.8c.19 0 .2-1.26.2-2.06V19c-7-3.17-12.9-7.26-15.84-14.72z"/><path d="M82.61-1a46.92 46.92 0 0 0 1.55 5.28C87.1 11.74 93 15.83 100 19V.57A6.41 6.41 0 0 0 99.86-1z" fill="#0353a7"/><path class="cls-5" d="M44.47 33.67a1.5 1.5 0 0 0-3-.16c-.14 2.66-2 6-3.59 9-2 3.66-3.41 6.31-2.36 8.26 1.58 2.93 8.66 4.29 10.8 4.63h.24a1.5 1.5 0 0 0 .24-3c-3.61-.59-8-2-8.62-3.05-.19-.76 1.33-3.58 2.34-5.45 1.77-3.2 3.77-6.9 3.95-10.23z"/><path d="M59.63 65.36a1.5 1.5 0 0 0-1.27-2.72c-3.88 1.81-14.91 5.42-19.23.38a1.5 1.5 0 1 0-2.28 2c2.34 2.73 5.77 3.63 9.26 3.63 6.45-.04 13.1-3.09 13.52-3.29z" fill="#1273eb"/><path class="cls-5" d="M74.13 12.9c-3.41-1.08-8.63-1.23-14.18 4.23a1.5 1.5 0 1 0 2.1 2.14c3.61-3.54 7.36-4.72 11.17-3.51 4.52 1.44 7.42 5.67 7.77 7.63a1.5 1.5 0 0 0 1.47 1.24h.27a1.5 1.5 0 0 0 1.21-1.74c-.54-3.07-4.26-8.22-9.81-9.99zM33.72 15.18a9.31 9.31 0 0 1 8.06 8.14 1.5 1.5 0 0 0 1.49 1.32h.18a1.5 1.5 0 0 0 1.31-1.67c-.82-6.75-6-10-10.55-10.73-5.35-.9-10.27 1.22-12.23 5.25a1.5 1.5 0 1 0 2.7 1.31c1.32-2.8 5.08-4.29 9.04-3.62z"/><ellipse class="cls-7" cx="31.8" cy="29.22" rx="2.08" ry="2.64"/><ellipse class="cls-7" cx="66.2" cy="31.45" rx="2.08" ry="2.64"/></g></svg>