<svg width="124" height="23" xmlns="http://www.w3.org/2000/svg"><g fill="#A5B7C6" fill-rule="nonzero"><path d="M31.246 6.606c0-.818.663-1.472 1.493-1.472h7.573c.747 0 1.349.593 1.349 1.33 0 .736-.602 1.329-1.349 1.329h-6.079v2.843h5.228c.747 0 1.35.593 1.35 1.33 0 .735-.603 1.329-1.35 1.329h-5.228v3.824c0 .818-.664 1.473-1.494 1.473s-1.493-.655-1.493-1.473V6.606zM42.76 6.504c0-.818.664-1.473 1.494-1.473s1.494.655 1.494 1.473v9.327h5.498c.747 0 1.349.593 1.349 1.33 0 .736-.602 1.329-1.349 1.329h-7.013c-.83 0-1.493-.655-1.493-1.473V6.504h.02zM53.341 16.608l4.73-10.513c.333-.716.934-1.166 1.744-1.166h.166c.809 0 1.39.43 1.722 1.166l4.73 10.513c.104.205.145.41.145.593 0 .777-.622 1.411-1.41 1.411-.706 0-1.162-.409-1.432-1.002l-.913-2.106h-5.954l-.955 2.188c-.249.573-.747.92-1.37.92-.767 0-1.369-.613-1.369-1.37 0-.204.063-.43.166-.634zm8.382-3.702l-1.867-4.397-1.867 4.397h3.734zM69.4 7.854h-2.863c-.747 0-1.37-.614-1.37-1.35 0-.736.623-1.35 1.37-1.35h8.714c.747 0 1.369.614 1.369 1.35 0 .736-.622 1.35-1.37 1.35h-2.862v9.286c0 .818-.664 1.472-1.494 1.472S69.4 17.958 69.4 17.14V7.854z"/><g><path d="M77.72 6.504c0-.818.664-1.473 1.493-1.473.83 0 1.494.655 1.494 1.473V17.14c0 .818-.664 1.472-1.494 1.472s-1.493-.654-1.493-1.472V6.504zM82.45 11.863v-.041c0-3.804 2.905-6.913 7.054-6.913 2.033 0 3.403.532 4.523 1.35.311.225.581.654.581 1.166 0 .797-.664 1.431-1.473 1.431-.415 0-.685-.143-.892-.286-.83-.614-1.702-.961-2.76-.961-2.282 0-3.92 1.86-3.92 4.152v.04c0 2.291 1.597 4.193 3.92 4.193 1.266 0 2.096-.388 2.946-1.043.229-.184.54-.327.893-.327.747 0 1.39.614 1.39 1.35 0 .45-.229.818-.498 1.043-1.224 1.043-2.656 1.677-4.814 1.677-3.983.041-6.95-3.006-6.95-6.831zM95.417 11.863v-.041c0-3.804 3.03-6.913 7.22-6.913 4.17 0 7.179 3.068 7.179 6.872v.041c0 3.804-3.03 6.913-7.22 6.913-4.17 0-7.179-3.088-7.179-6.872zm11.287 0v-.041c0-2.29-1.702-4.193-4.108-4.193-2.407 0-4.067 1.861-4.067 4.152v.041c0 2.29 1.701 4.193 4.108 4.193 2.407 0 4.067-1.861 4.067-4.152zM111.538 6.545c0-.818.664-1.473 1.494-1.473h.31c.727 0 1.142.348 1.557.86l5.747 7.444V6.484c0-.798.664-1.453 1.473-1.453.81 0 1.473.655 1.473 1.453v10.615c0 .818-.664 1.473-1.494 1.473h-.104c-.726 0-1.14-.348-1.556-.86l-5.954-7.71v7.158c0 .798-.664 1.452-1.473 1.452-.81 0-1.473-.654-1.473-1.452V6.545z"/></g><g><path d="M10.726 12.354h2.76l2.448-4.03H8.257l-2.53-4.131h12.738l2.448-4.03H2.116C1.37.164.706.554.332 1.187a2.018 2.018 0 0 0 .02 2.025l11.1 18.122a2.043 2.043 0 0 0 1.743.981c.706 0 1.37-.368 1.743-.981l.643-1.043-4.855-7.936zM20.685 4.193h4.772l.602-.982a1.97 1.97 0 0 0 .02-2.025A2.03 2.03 0 0 0 24.295.164h-1.162l-2.448 4.029z"/><path d="M19.523 6.116l-5.187 8.488 2.366 3.886 7.572-12.374z"/></g></g></svg>