<svg width="105" height="29" xmlns="http://www.w3.org/2000/svg"><g fill="#A5B7C6" fill-rule="nonzero"><path d="M4.548 6.906a11.715 11.715 0 0 0-1.815 2.396l-.768-.393A1.005 1.005 0 0 0 .88 8.142a.979.979 0 0 0-.861 1.104.979.979 0 0 0 1.403.767l.75.393a11.798 11.798 0 0 0-.88 2.864l1.235.225C2.9 11.342 3.93 9.377 5.465 7.786l-.917-.88zM13.57 3.126c-.281 0-.562.018-.843.018l-.112-1.029c.3-.243.487-.636.43-1.067a1.167 1.167 0 0 0-1.31-1.03 1.167 1.167 0 0 0-1.03 1.31c.057.413.32.768.675.918l.112 1.03c-1.18.187-2.302.542-3.388 1.066l.543 1.123c1.535-.73 3.2-1.104 4.923-1.104.823 0 1.628.094 2.433.262l.262-1.217c-.88-.187-1.797-.28-2.695-.28zM24.425 7.3c.543-.075.936-.562.861-1.105-.075-.543-.561-.936-1.104-.86-.506.055-.88.505-.88.991l-.692.6a12.554 12.554 0 0 0-2.321-1.873l-.655 1.049a11.132 11.132 0 0 1 4.21 4.81l1.143-.506a12.195 12.195 0 0 0-1.554-2.545l.655-.58a.687.687 0 0 0 .337.018zM12.671 19.896c-.636.037-1.273.056-1.909.056-1.441 0-2.845-.094-4.08-.3a13.949 13.949 0 0 1-2.096-.486c1.721 3.05 5.053 5.128 8.853 5.128 4.697 0 8.647-3.144 9.788-7.412-1.123.73-2.47 1.348-4.043 1.853-1.927.637-4.173 1.03-6.513 1.16z"/><path d="M13.57 5.615c-5.503 0-9.995 4.38-9.995 9.77 0 .693.075 1.404.224 2.078 1.105.786 4.455 1.46 8.797 1.197 4.736-.28 8.703-1.572 10.968-3.556 0-.318-.037-.636-.075-.954-.636-4.867-4.885-8.535-9.92-8.535zm-3.557 10.706a3.031 3.031 0 1 1 0-6.064 3.031 3.031 0 0 1 3.032 3.032c.02 1.666-1.347 3.032-3.032 3.032zm7.786-1.497a2.233 2.233 0 0 1-2.227-2.228A2.233 2.233 0 0 1 17.8 10.37a2.233 2.233 0 0 1 2.228 2.227c.018 1.236-.992 2.228-2.228 2.228zM39.866 8.684c-.486-.187-1.329-.505-2.264-.393-.899.113-1.385.562-1.385 1.648v1.422h3.668v2.826h-3.668v8.965h-3.182v-8.965h-2.209V11.38h2.209V9.92c0-2.77 1.478-4.567 4.23-4.567 1.048 0 1.909.206 2.62.505l-.019 2.826zM47.615 14.168c-.3-.056-.58-.074-.861-.074-1.479 0-2.49.898-2.49 2.657v6.42h-3.181V11.38h3.07v1.291c.748-1.104 1.871-1.61 3.312-1.61.674 0 1.385.206 1.797.562l-1.647 2.545zM60.211 17.257c0 .355-.018.804-.056 1.067H51.79c.337 1.703 1.535 2.451 3.032 2.451 1.03 0 2.134-.411 2.976-1.123l1.853 2.04c-1.348 1.236-3.051 1.797-5.016 1.797-3.613 0-6.12-2.452-6.12-6.176 0-3.706 2.433-6.233 5.97-6.233 3.388-.019 5.709 2.49 5.727 6.177zm-8.404-1.105h5.222c-.3-1.516-1.197-2.358-2.564-2.358-1.516 0-2.377.899-2.658 2.358zM72.789 17.257c0 .355-.019.804-.056 1.067h-8.367c.337 1.703 1.535 2.451 3.032 2.451 1.03 0 2.134-.411 2.976-1.123l1.853 2.04c-1.347 1.236-3.05 1.797-5.016 1.797-3.612 0-6.12-2.452-6.12-6.176 0-3.706 2.433-6.233 5.97-6.233 3.388-.019 5.71 2.49 5.728 6.177zm-8.404-1.105h5.222c-.3-1.516-1.198-2.358-2.564-2.358-1.498 0-2.377.899-2.658 2.358zM86.508 17.257c0 3.537-2.452 6.214-5.709 6.214-1.59 0-2.695-.618-3.462-1.535v6.101h-3.163V11.38h3.107v1.31c.767-.955 1.89-1.61 3.518-1.61 3.257-.019 5.709 2.64 5.709 6.177zm-9.34 0c0 1.853 1.236 3.256 3.033 3.256 1.871 0 3.05-1.44 3.05-3.256 0-1.816-1.16-3.257-3.05-3.257-1.797.019-3.033 1.404-3.033 3.257zM91.618 7.505c0 1.142-.88 2.022-2.04 2.022a1.99 1.99 0 0 1-2.022-2.022c0-1.141.88-2.04 2.022-2.04 1.141 0 2.04.899 2.04 2.04zm-.43 15.647h-3.183V11.361h3.182v11.791zM96.484 15.572l4.436-4.192h3.893l-5.727 5.54 5.746 6.232h-3.912l-4.473-4.772v4.772h-3.182V5.634h3.182v9.938z"/></g></svg>