<?xml version="1.0" encoding="UTF-8"?>
<svg width="55px" height="55px" viewBox="0 0 55 55" version="1.1" xmlns="http://www.w3.org/2000/svg" xmlns:xlink="http://www.w3.org/1999/xlink">
    <!-- Generator: Sketch 53.2 (72643) - https://sketchapp.com -->
    <title>iconos (6)-81</title>
    <desc>Created with Sketch.</desc>
    <g id="final" stroke="none" stroke-width="1" fill="none" fill-rule="evenodd">
        <g id="modal-automático-registro" transform="translate(-387.000000, -452.000000)" fill-rule="nonzero">
            <g id="Group-30" transform="translate(337.000000, 235.000000)">
                <g id="iconos-(6)-81" transform="translate(50.000000, 217.000000)">
                    <path d="M49.973,30.184 C45.529,32.934 35.42,33.9515 30.2445,29.7495 C25.069,25.5475 23.0285,29.799 18.1445,30.8495 C13.2605,31.9 5.1095,28.798 5.1095,28.798 C5.1095,28.798 17.38,19.2775 17.567,18.898 C17.754,18.5185 28.897,17.512 29.282,17.05 C29.667,16.588 43.714,19.0685 43.6865,19.47 C43.659,19.8715 47.7235,25.267 48.0865,25.4815 C48.4495,25.696 49.973,30.184 49.973,30.184 Z" id="Path" fill="#5EB2FC"></path>
                    <path d="M24.981,14.267 C24.981,14.267 46.904,16.3185 45.1,18.0785 C41.7065,21.3785 31.185,28.0115 30.9705,29.6285 C30.756,31.2455 37.4,29.249 37.3175,30.932 C37.235,32.615 26.994,40.2105 27.005,41.7395 C27.016,43.2685 34.815,40.513 34.4025,41.822 C33.99,43.131 19.1675,55 17.6715,54.9175 C16.1755,54.835 12.7545,41.8385 14.135,41.8385 C15.5155,41.8385 19.305,41.646 20.2565,41.7285 C21.208,41.811 22.594,36.069 23.2155,35.046 C23.837,34.023 16.181,35.101 14.9325,33.759 C13.684,32.417 21.769,13.6015 24.981,14.267 Z" id="Path" fill="#FAD050"></path>
                    <path d="M18.667,53.35 C18.5697443,53.3502659 18.4795811,53.2991419 18.4298759,53.2155468 C18.3801707,53.1319517 18.3783167,53.0283195 18.425,52.943 L28.7595,33.55 L22.858,32.6205 C22.7763338,32.6076095 22.7048009,32.5586605 22.6632085,32.487207 C22.6216162,32.4157535 22.6143787,32.3293788 22.6435,32.252 L24.519,27.401 C24.5807847,27.2709656 24.7324027,27.2105921 24.8666611,27.2625631 C25.0009195,27.3145341 25.072371,27.461257 25.0305,27.599 L23.276,32.131 L29.2215,33.0605 C29.3091867,33.0748073 29.3845589,33.1305969 29.4238549,33.2102805 C29.4631509,33.289964 29.4615288,33.3837234 29.4195,33.462 L18.909,53.1795 C18.8684144,53.2786067 18.7739845,53.3451369 18.667,53.35 Z" id="Path" fill="#FAD97E"></path>
                    <path d="M17.8695,28.71 C21.7797611,30.10148 26.029206,30.2246523 30.0135,29.062 C30.5965,28.897 31.1795,28.7155 31.757,28.512 C34.3145,25.9765 42.207,20.812 45.078,18.062 C46.904,16.302 24.981,14.2505 24.981,14.2505 C22.825,13.8215 18.4855,22.1375 16.2305,28.05 C16.7695,28.2975 17.3195,28.512 17.8695,28.71 Z" id="Path" fill="#FFB229"></path>
                    <path d="M42.6965,23.188 C44.6215,20.0695 38.3625,21.538 30.8165,24.2165 C23.2705,26.895 21.3125,23.848 18.9475,23.573 C16.5825,23.298 15.532,25.718 8.778,28.523 C1.9195,31.35 -4.697,23.65 4.95,16.0215 C8.8,12.947 11.4565,16.5715 11.4565,16.5715 C7.8595,9.5315 18.447,-3.025 27.5,8.8 C29.9915,1.87 34.6115,0.044 41.0795,0.044 C47.5475,0.044 50.303,11.473 47.0965,14.6245 C51.128,14.8445 60.115,22.5445 50.9465,29.8485 C47.0855,32.923 38.5,29.9475 42.6965,23.188 Z" id="Path" fill="#92CDFA"></path>
                    <path d="M18.568,53.35 L18.4635,53.35 C17.292,53.0475 14.7895,43.5985 14.7675,43.505 C14.7310492,43.3531217 14.8246217,43.2004508 14.9765,43.164 C15.1283783,43.1275492 15.2810492,43.2211217 15.3175,43.373 C15.8675,45.573 17.8365,52.041 18.568,52.7725 C18.9695,52.404 20.273,51.4305 22.418,49.83 C25.234,47.74 29.876,44.2915 30.4535,43.516 C30.427237,43.4245865 30.4500743,43.3260919 30.5138858,43.2555634 C30.5776973,43.1850349 30.6734227,43.1524865 30.767,43.1695 C30.8897536,43.2046166 30.988045,43.2967648 31.031,43.417 C31.1355,43.8845 30.063,44.8415 22.7425,50.27 C20.8725,51.656 19.1125,52.965 18.8925,53.2235 C18.8087497,53.3121556 18.6896564,53.3585818 18.568,53.35 L18.568,53.35 Z" id="Path" fill="#F8FAFB"></path>
                    <path d="M53.6965,19.899 C53.6165542,19.8996956 53.5402632,19.8655655 53.4875,19.8055 C49.775,15.488 44.9515,14.7785 41.6735,15.554 C39.633,16.038 38.1315,17.0995 37.8235,18.26 C37.785933,18.3812879 37.6754181,18.4652793 37.5485,18.469 C37.4198726,18.466448 37.3102052,18.3750585 37.2845,18.249 C36.5365,14.5255 33.55,12.2485 29.2875,12.155 C25.3,12.1 20.4765,14.179 19.4535,18.2545 C19.4170492,18.4063783 19.2643783,18.4999508 19.1125,18.4635 C18.9606217,18.4270492 18.8670492,18.2743783 18.9035,18.1225 C20.0035,13.7665 25.069,11.5225 29.2875,11.6105 C33.506,11.6985 36.5695,13.8105 37.631,17.3525 C38.291,16.313 39.7045,15.455 41.536,15.0205 C44.979,14.2065 50.05,14.9435 53.9,19.4425 C53.971576,19.5239652 53.9885936,19.6398872 53.9434516,19.7384869 C53.8983096,19.8370865 53.799438,19.8999508 53.691,19.899 L53.6965,19.899 Z" id="Path" fill="#C7EBFF"></path>
                    <path d="M31.2345,7.238 C31.1415678,7.2383241 31.0547586,7.19169002 31.0037219,7.11402559 C30.9526853,7.03636116 30.9443263,6.93817405 30.9815,6.853 C32.3896907,3.98868849 34.9830126,1.88588636 38.0765,1.1 C40.2893703,0.522876821 42.6446706,1.05835886 44.3905,2.5355 C44.5074463,2.63270212 44.5234521,2.8063037 44.42625,2.92325 C44.3290479,3.0401963 44.1554463,3.05620212 44.0385,2.959 C42.4258293,1.58799152 40.2477983,1.08552673 38.1975,1.6115 C35.2673257,2.36162676 32.8141974,4.36032315 31.4875,7.0785 C31.441977,7.17688691 31.3428998,7.23934861 31.2345,7.238 Z" id="Path" fill="#C7EBFF"></path>
                    <path d="M11.9845,12.155 L11.9075,12.155 C11.8374828,12.1345783 11.7784459,12.0871789 11.7433766,12.023229 C11.7083073,11.9592791 11.7000783,11.8840172 11.7205,11.814 C12.6335,8.712 14.6685,6.314 17.1765,5.467 C19.3765,4.6915 21.78,5.137 24.079,6.7595 C24.2035402,6.84758942 24.2330894,7.01995979 24.145,7.1445 C24.0569106,7.26904021 23.8845402,7.29858942 23.76,7.2105 C21.6095,5.698 19.393,5.2745 17.3525,5.9895 C15.0095,6.809 13.101,9.0475 12.243,11.9735 C12.2036337,12.0823855 12.1002833,12.1549507 11.9845,12.155 Z" id="Path" fill="#C7EBFF"></path>
                    <path d="M3.9215,19.899 C3.82018566,19.898142 3.72754972,19.8416445 3.68040863,19.7519615 C3.63326754,19.6622784 3.6392583,19.5539387 3.696,19.47 C4.851,17.82 6.358,16.775 7.8375,16.6815 C8.98649047,16.6267681 10.0937719,17.1182134 10.824,18.007 C10.9257585,18.1209087 10.9159087,18.2957415 10.802,18.3975 C10.6880913,18.4992584 10.5132585,18.4894087 10.4115,18.3755 C9.79363686,17.613056 8.85092755,17.1886327 7.8705,17.2315 C6.5615,17.314 5.2085,18.2435 4.147,19.7835 C4.09510139,19.8563949 4.01098129,19.8994808 3.9215,19.899 Z" id="Path" fill="#C7EBFF"></path>
                </g>
            </g>
        </g>
    </g>
</svg>