<?xml version="1.0" encoding="UTF-8"?>
<svg width="55px" height="55px" viewBox="0 0 55 55" version="1.1" xmlns="http://www.w3.org/2000/svg" xmlns:xlink="http://www.w3.org/1999/xlink">
    <!-- Generator: Sketch 53.2 (72643) - https://sketchapp.com -->
    <title>iconos 2.0-87</title>
    <desc>Created with Sketch.</desc>
    <g id="final" stroke="none" stroke-width="1" fill="none" fill-rule="evenodd">
        <g id="modal-automático-registro" transform="translate(-388.000000, -651.000000)" fill-rule="nonzero">
            <g id="Group-30" transform="translate(337.000000, 235.000000)">
                <g id="iconos-2.0-87" transform="translate(51.000000, 416.000000)">
                    <path d="M23.0285,54.604 C20.8285,55.154 0.1595,43.791 0.1595,43.791 C0.1595,43.791 0.1045,10.8625 1.4465,10.142 C2.7885,9.4215 18.755,12.342 18.755,12.342 L28.2315,25.1295 L23.034,49.1645" id="Path" fill="#5EB2FC"></path>
                    <path d="M22.8635,35.3375 C19.8,33.803 17.05,32.252 13.904,30.8605 C9.35,28.8585 4.862,26.8235 0.3245,24.8435 C0.2915,26.2295 0.264,27.632 0.242,28.985 C4.125,31.086 8.0245,33.154 11.913,35.2495 C15.6145,37.2405 19.0355,39.0445 22.8305,40.8485 L22.8635,35.3375 Z" id="Path" fill="#FCBD24"></path>
                    <path d="M13.442,15.829 C12.221,16.6265 11.792,49.929 11.792,49.929 C11.792,49.929 9.3775,48.7135 8.558,48.279 C7.7385,47.8445 9.4875,13.849 9.4875,13.849 L13.101,13.849 L13.442,15.851" id="Path" fill="#FCD250"></path>
                    <path d="M22.7425,25.927 C22.715,24.827 22.8855,23.727 22.7425,22.6655 C22.6325,21.758 23.067,21.8735 22.2585,21.461 C21.2465,20.944 14.091,16.2635 13.4585,15.8675 C12.6995,15.3835 11.99,15.026 11.2035,14.586 C9.5535,13.651 3.201,10.8515 1.43,10.142 C2.695,8.8 25.058,2.046 29.623,0.671 C31.273,1.32 37.5045,4.037 39.16,4.6805 C44.1250374,6.76175978 48.9082176,9.25269287 53.46,12.1275 C53.8395,16.7805 53.724,39.985 53.724,39.985 C53.724,39.985 43.45,43.549 38.06,44.737 C33.11,45.837 24.6015,48.6475 23.0285,49.1645 C23.0175,46.4365 22.8195,28.6605 22.7425,25.927 Z" id="Path" fill="#C7EBFF"></path>
                    <path d="M22.7425,25.927 C22.715,24.827 22.8855,23.727 22.7425,22.6655 C22.7137171,22.3875764 22.6393906,22.1162845 22.5225,21.8625 C27.016,20.064 33.1265,17.6825 38.764,15.708 C46.145,13.123 52.8385,11.231 53.449,12.276 C54.4775,13.728 53.702,45.43 53.702,45.43 C53.702,45.43 44.5885,48.6695 39.182,49.83 C34.232,50.93 24.596,54.065 23.0175,54.582 C23.0175,51.876 22.8195,28.666 22.7425,25.927 Z" id="Path" fill="#92CDFA"></path>
                    <path d="M54.021,25.8115 L50.5395,26.8455 C42.2895,29.271 24.0185,35.002 22.8635,35.4035 L22.8305,40.9035 C24.409,40.4305 43.3785,34.3035 51.458,31.9055 C52.3105,31.6525 53.163,31.4105 54.021,31.1685 L54.021,25.8115 Z" id="Path" fill="#FAD050"></path>
                    <path d="M9.5205,13.904 L9.4655,13.8765 L38.412,4.4 L39.16,4.6915 C40.337,5.148 41.5305,5.61 42.7185,6.094 C36.597,8.0355 18.3975,13.6675 13.4805,15.8675 C12.1605,15.2075 10.8405,14.553 9.5205,13.904 Z" id="Path" fill="#FFECB4"></path>
                    <path d="M38.8465,15.719 C38.0215,13.574 19.8495,3.74 19.8495,3.74 C19.4834722,3.75292304 19.1224575,3.82921996 18.7825,3.9655 L15.642,5.0325 C16.665,4.686 33.748,13.662 35.8765,16.8135 L38.8465,15.7135" id="Path" fill="#FFECB4"></path>
                    <path d="M38.8465,15.719 C39.3965,17.1985 39.3965,49.874 39.1655,49.9235 C38.5715,50.0775 38.6155,50.061 38.0655,50.1765 C37.675,50.2645 36.4155,50.5725 36.4155,50.5725 C36.4155,50.5725 36.5805,18.755 35.8655,16.7695 C36.388,16.544 38.8025,15.609 38.8465,15.719 Z" id="Path" fill="#FCD250"></path>
                    <path d="M17.424,33.9185 C17.8116652,33.8612532 18.1554682,33.6387412 18.3664672,33.3085278 C18.5774662,32.9783143 18.6349327,32.5728397 18.524,32.197 C18.3900643,31.7589985 18.1776094,31.3489979 17.897,30.987 C17.6523535,30.6369494 17.488883,30.2367286 17.4185,29.8155 C17.3033963,29.0024357 17.5748153,28.1822885 18.1522243,27.5984039 C18.7296333,27.0145193 19.5467026,26.7339708 20.361,26.84 C20.5526302,26.8861462 20.7522372,26.8040855 20.856,26.6365 C20.9666475,26.4605856 20.9391263,26.2312415 20.79,26.0865 C20.0007309,25.3452989 19.5196224,24.3339893 19.4425,23.254 C19.2821148,22.1082522 19.2821148,20.9457478 19.4425,19.8 C19.5423265,18.8959143 19.8759476,18.033428 20.4105,17.2975 C21.1226455,18.1305612 22.1388407,18.6436109 23.232,18.722 C23.8250904,18.7964906 24.425372,18.658114 24.926,18.3315 C25.4366455,17.9435982 25.5781721,17.2359653 25.256,16.6815 C24.7350129,15.7795886 23.7491898,15.2494159 22.7095,15.312 C21.9728378,15.3300875 21.2554076,15.5508352 20.636,15.95 C20.561022,15.772292 20.5021198,15.5882226 20.46,15.4 C20.2751428,14.407796 20.5732667,13.3868236 21.263,12.65 C22.847,10.912 25.366,10.868 27.5495,10.8405 C27.6405071,10.8408985 27.7292217,10.8119699 27.8025,10.758 C28.1228693,10.8116647 28.4519518,10.7695728 28.7485,10.637 C29.139,10.483 29.524,10.3125 29.909,10.142 C32.857,10.296 36.135,9.416 38.8025,11.0495 C39.7788086,11.6205578 40.4546194,12.5920358 40.6505,13.706 C40.8127434,14.7540651 40.5537248,15.8237525 39.93,16.6815 C39.2865,17.545 37.972,18.0345 37.8015,19.206 C37.7344436,19.7541383 37.9703472,20.2954529 38.4175,20.6195 C38.8764618,20.8833433 39.3174286,21.1773211 39.7375,21.4995 C40.447,22.231 40.227,23.4685 39.831,24.2935 C39.4739708,24.8185209 39.1577111,25.3701367 38.885,25.9435 C38.7207856,26.5848552 38.8833398,27.2659366 39.3195,27.764 C40.106,28.7595 41.5855,29.0015 42.174,30.173 C42.4482637,30.6516734 42.4334229,31.2431826 42.1355,31.7075 C41.8497541,32.1142863 41.3266938,32.27887 40.8595,32.109 C40.7464382,32.0750953 40.624495,32.088039 40.52107,32.1449228 C40.417645,32.2018065 40.341412,32.2978597 40.3095,32.4115 C40.2452812,32.6464386 40.3791976,32.8899231 40.612,32.9615 C41.2745295,33.1884133 42.008182,33.0319572 42.5205,32.5545 C43.070745,32.061271 43.3266635,31.3184831 43.197,30.591 C43.0699865,29.8637558 42.6781135,29.209328 42.097,28.754 C41.4865,28.259 40.7055,27.9785 40.15,27.423 C39.9232503,27.2144949 39.7610111,26.9453688 39.6825,26.6475 C39.636513,26.3349523 39.7199323,26.0171646 39.9135,25.7675 C40.2817628,25.2563178 40.5864993,24.7022514 40.821,24.1175 C41.184,23.0175 41.162,21.6755 40.271,20.8175 C39.864,20.4325 39.314,20.2675 38.896,19.9045 C38.478,19.5415 38.643,19.0905 38.984,18.7275 C39.325,18.3645 39.9245,17.963 40.3315,17.512 C40.7367232,17.0563034 41.0487642,16.5256469 41.25,15.95 C41.6622105,14.8088799 41.6308035,13.5545603 41.162,12.4355 C40.6398698,11.2946073 39.709968,10.3902091 38.555,9.9 C36.355,8.921 34.012,9.1795 31.6855,9.2455 C31.966,9.097 32.2355,8.9375 32.505,8.767 C34.0270719,7.86881674 35.2014481,6.48320791 35.838,4.8345 C36.0864458,4.14460635 36.1821499,3.40899794 36.1185,2.6785 C36.1247624,1.86875798 35.729219,1.10857284 35.0625,0.649 C33.693,-0.1045 31.9715,0.649 30.954,1.639 C29.788,2.7885 29.271,4.389 28.754,5.9125 L28.204,7.5185 C27.4044798,6.09459567 26.4288016,4.77706055 25.3,3.597 C24.7012237,2.88435442 23.9781964,2.28617979 23.166,1.8315 C22.4016436,1.42140322 21.4601409,1.55019368 20.834,2.1505 C19.8,3.3 20.9,5.104 21.6095,6.1325 C22.47806,7.38373916 23.5798602,8.45566002 24.8545,9.2895 C25.2330766,9.53647859 25.6261145,9.76054692 26.0315,9.9605 C24.9045178,9.9771195 23.7885842,10.1854271 22.7315,10.5765 C21.4618705,11.0401518 20.4237001,11.9816106 19.8385,13.2 C19.3911344,14.2736293 19.4271994,15.4878162 19.9375,16.533 C19.1410876,17.505973 18.6629984,18.7002359 18.568,19.954 C18.422617,21.1836324 18.4485307,22.4274895 18.645,23.65 C18.7622804,24.4803069 19.0649247,25.2735734 19.5305,25.971 C18.1078583,26.1635445 16.9533187,27.2173084 16.632,28.6165 C16.420285,29.522654 16.5702388,30.4756497 17.05,31.273 C17.3499193,31.6157439 17.5764124,32.0163186 17.7155,32.45 C17.7155,32.637 17.6605,33 17.424,33.0275 C16.863,33.0715 16.863,33.946 17.424,33.9185 Z M28.336,9.8395 C28.4075,9.6635 28.457,9.4765 28.512,9.2895 L29.4415,6.5395 C29.7165,5.731 29.9915,4.8895 30.3215,4.125 C30.921,2.7885 31.9715,1.375 33.5335,1.199 C33.9084165,1.14322263 34.2914485,1.20067742 34.6335,1.364 C34.9190785,1.52695537 35.1197818,1.80593291 35.1835,2.1285 C35.3674452,2.8536002 35.3445813,3.6157306 35.1175,4.3285 C34.6162231,5.81441855 33.607526,7.07626363 32.2685,7.8925 C31.5667821,8.34444142 30.83127,8.74161798 30.0685,9.0805 L29.7715,9.2125 L29.6505,9.2125 C29.4837881,9.18926246 29.3234489,9.28546599 29.2655,9.4435 L28.8805,9.6085 C28.721,9.669 28.5285,9.7735 28.336,9.8395 Z M27.8245,8.6295 L27.8245,8.6295 C27.7365,8.8825 27.654,9.141 27.566,9.394 C27.478,9.647 27.566,9.603 27.3515,9.5645 C27.0186384,9.47392411 26.6988377,9.34082787 26.4,9.1685 C25.0857124,8.50640232 23.9184449,7.58605676 22.968,6.4625 C22.5074927,5.91650238 22.1039023,5.3249384 21.7635,4.697 C21.4885,4.1965 21.0595,3.3715 21.428,2.816 C21.7965,2.2605 22.7535,2.541 23.2375,2.882 C23.8689015,3.37053726 24.4476919,3.92352172 24.9645,4.532 C26.0920288,5.75707706 27.0502301,7.1277858 27.8135,8.6075 L27.8245,8.6295 Z M21.0815,16.72 C21.5872759,16.3683454 22.1870252,16.1767322 22.803,16.17 C23.474,16.17 24.453,16.5055 24.5795,17.27 C24.6675,17.699 24.0625,17.82 23.749,17.853 C23.2427193,17.8877556 22.7354634,17.801013 22.2695,17.6 C21.8075965,17.4080519 21.3997198,17.105921 21.0815,16.72 L21.0815,16.72 Z" id="Shape" fill="#FFB229"></path>
                </g>
            </g>
        </g>
    </g>
</svg>