<?xml version="1.0" encoding="UTF-8"?>
<svg width="53px" height="55px" viewBox="0 0 53 55" version="1.1" xmlns="http://www.w3.org/2000/svg" xmlns:xlink="http://www.w3.org/1999/xlink">
    <!-- Generator: Sketch 53.2 (72643) - https://sketchapp.com -->
    <title>Sin título-1-13</title>
    <desc>Created with Sketch.</desc>
    <g id="final" stroke="none" stroke-width="1" fill="none" fill-rule="evenodd">
        <g id="modal-automático-registro" transform="translate(-388.000000, -540.000000)" fill-rule="nonzero">
            <g id="Group-30" transform="translate(337.000000, 235.000000)">
                <g id="Sin-título-1-13" transform="translate(51.000000, 305.000000)">
                    <path d="M0.40007984,14.0987984 C3.86512093,14.1217736 5.17222929,12.9114747 6.72160243,11.3104558 C7.53380567,10.3829363 8.4867351,9.58882847 9.54551217,8.95719764 C13.0675551,7.06674696 14.9893826,8.32966215 15.0364478,8.3845715 C15.2075254,8.53220855 15.2415535,8.78428506 15.1157452,8.97199903 C14.9899369,9.15971301 14.7438448,9.22404944 14.5422636,9.12192571 C14.4716658,9.07486055 12.9734248,8.12571311 9.93772186,9.74161701 C8.96377064,10.341239 8.09022819,11.0903678 7.34913793,11.9615238 C5.71752411,13.6374349 4.03726957,15.3689353 0.307129995,15.0697606 C0.199166678,15.0611014 4.99996609e-17,14.9963147 0,14.6102263 C0,14.2241379 0.282541109,14.098019 0.40007984,14.0987984 Z" id="Path" fill="#5EB2FC"></path>
                    <path d="M49.561359,42.0309331 C51.0909768,41.097474 53.5880451,39.112096 51.234787,35.8959765 C48.8815289,32.6798571 38.5690289,17.5309014 35.6509888,13.1616855 C32.7329488,8.79246957 30.1600532,8.77678119 26.9596222,8.05511537 C23.7591912,7.33344954 19.4919498,5.75676661 16.3542723,7.18440986 C14.7854336,7.8903873 14.5344194,9.53766798 11.7026654,16.5111562 C8.87091151,23.4846444 10.4554386,25.5790441 12.8636061,29.0618661 C15.2717736,32.5446881 26.8393446,49.3095478 28.9729653,52.1962111 C31.106586,55.0828744 31.553705,55.1142511 34.0560028,53.3885285 C36.5583006,51.6628059 48.0317413,42.9643921 49.561359,42.0309331 Z M17.2171336,16.8170797 C16.2087485,15.1111224 16.6886583,12.9160312 18.3169562,11.7865283 C19.9452542,10.6570255 22.1693798,10.976406 23.4140467,12.5184616 C24.3362249,14.2110778 23.8374736,16.3264568 22.2563052,17.428849 C20.6751368,18.5312413 18.5177949,18.267693 17.2485104,16.8170797 L17.2171336,16.8170797 Z" id="Shape" fill="#FCBD24"></path>
                    <path d="M32.8812244,14.9419477 L32.8812244,14.9419477 C32.7927397,14.8071458 32.8274951,14.6264177 32.9596663,14.5340496 L34.9285589,13.2162251 C34.9927591,13.1715963 35.0722502,13.1547583 35.1490315,13.1695239 C35.2258128,13.1842895 35.2933888,13.2294097 35.336457,13.294667 C35.4249417,13.4294689 35.3901863,13.610197 35.2580151,13.7025651 L33.2891225,15.0203896 C33.1543206,15.1088743 32.9735925,15.0741189 32.8812244,14.9419477 L32.8812244,14.9419477 Z" id="Path" stroke="#F69110" stroke-width="0.3" fill="#F69110"></path>
                    <path d="M16.2044686,26.0963911 L16.2044686,26.0963911 C16.1159839,25.9615893 16.1507393,25.7808611 16.2829105,25.6884931 L19.9932141,23.2018837 C20.0812043,23.1315419 20.201333,23.1168134 20.3037101,23.1638151 C20.4060873,23.2108168 20.4732217,23.3115184 20.477232,23.4240979 C20.4812424,23.5366775 20.4214435,23.6419007 20.3226703,23.6960679 L16.6123666,26.1826773 C16.4755556,26.2696035 16.2943586,26.2312734 16.2044686,26.0963911 L16.2044686,26.0963911 Z M21.7660019,22.3625549 L21.7660019,22.3625549 C21.6775172,22.2277531 21.7122726,22.0470249 21.8444438,21.9546569 L25.5469033,19.4680475 C25.6111034,19.4234187 25.6905945,19.4065806 25.7673758,19.4213463 C25.8441571,19.4361119 25.9117331,19.4812321 25.9548013,19.5464894 C26.043286,19.6812913 26.0085306,19.8620194 25.8763594,19.9543875 L22.1739,22.4723736 C22.0410991,22.5624853 21.8607926,22.5312784 21.7660019,22.4017759 L21.7660019,22.3625549 Z M27.3275352,18.6287187 L27.3275352,18.6287187 C27.2390506,18.4939168 27.273806,18.3131887 27.4059772,18.2208207 L31.1084366,15.7342112 C31.2432385,15.6457266 31.4239666,15.680482 31.5163347,15.8126532 L31.5163347,15.8126532 C31.6048194,15.9474551 31.5700639,16.1281832 31.4378927,16.2205513 L27.7354333,18.7071607 C27.6093182,18.8095603 27.4244309,18.7921181 27.319691,18.6679397 L27.3275352,18.6287187 Z" id="Shape" stroke="#F69110" stroke-width="0.3" fill="#F69110"></path>
                    <path d="M12.376502,28.6928193 L12.376502,28.6928193 C12.2880174,28.5580174 12.3227728,28.3772892 12.454944,28.2849212 L14.4238366,26.9670966 C14.5594385,26.8827876 14.7370749,26.9169485 14.8317347,27.0455386 C14.9202193,27.1803405 14.8854639,27.3610686 14.7532927,27.4534367 L12.7844001,28.7712612 C12.6495982,28.8597459 12.4688701,28.8249905 12.376502,28.6928193 L12.376502,28.6928193 Z" id="Path" stroke="#F69110" stroke-width="0.3" fill="#F69110"></path>
                    <path d="M38.6434682,24.0271506 C37.2550459,21.8699974 36.0078191,21.6738925 35.0665158,21.5483854 C33.0348697,21.3365922 30.7208325,23.1564451 30.3599996,24.4193603 C29.8129096,26.2013867 30.5261683,28.1291131 32.1014106,29.1258766 C33.7385155,30.1427952 35.8301737,30.0588803 37.380553,28.9140833 C38.918015,27.8708056 40.0240463,26.1764597 38.6434682,24.0271506 Z M33.1525326,27.9492475 C32.1726246,27.3302039 31.7316151,26.1294991 32.077878,25.0233633 C32.6134097,23.9138984 33.748645,23.2204845 34.9802297,23.2505755 C35.9447288,23.3412644 36.7877663,23.9391633 37.1922923,24.8194142 C38.0473095,26.1529271 37.3648646,27.1726723 36.407873,27.8551172 C35.4384929,28.5422065 34.1476728,28.5670898 33.1525326,27.9178707 L33.1525326,27.9492475 Z" id="Shape" fill="#FFEEB6"></path>
                    <path d="M35.7332723,39.1193794 C34.34485,36.9622261 33.0976232,36.7661212 32.15632,36.6406141 C30.1246738,36.4288209 27.8106367,38.2486738 27.4498038,39.511589 C26.9027137,41.2936154 27.6159725,43.2213418 29.1912148,44.2181053 C30.8285804,45.2408851 32.9244931,45.1600338 34.4782013,44.0141562 C36.0156633,42.9708785 37.1216946,41.2765326 35.7332723,39.1193794 Z M30.3050903,42.9238133 C29.352754,42.3279342 28.9263202,41.1617025 29.2696567,40.0920594 C29.7876759,39.0275175 30.8786162,38.3625342 32.0621897,38.3898693 C32.9815568,38.4713533 33.7896758,39.0319672 34.1879661,39.8645778 C34.9723855,41.1431813 34.3526942,42.1472381 33.4427677,42.7826178 C32.5281706,43.4759315 31.2812861,43.5351585 30.3050903,42.9316575 L30.3050903,42.9238133 Z" id="Shape" fill="#FFEEB6"></path>
                    <path d="M24.0297353,30.9692621 C24.0297353,30.9692621 22.6177804,32.2478657 23.4884859,32.7969592 C24.3591914,33.3460528 30.4855067,33.7774834 32.5328413,34.365798 C34.5801758,34.9541125 41.3026498,36.1150532 41.592885,35.864039 C41.8831202,35.6130248 42.2282647,34.4834609 41.9537179,34.1618489 C41.6791711,33.840237 31.7562661,31.8948769 29.9128806,31.5575766 C27.9667476,31.2334798 26.0015086,31.0369559 24.0297353,30.9692621 L24.0297353,30.9692621 Z" id="Path" fill="#FFEEB6"></path>
                    <path d="M4.16012194,6.12315893 C3.93800271,5.8644264 3.74502325,5.58387538 3.58365659,5.28665048 C3.34699734,4.85074248 4.14469676,4.51008843 4.43444309,4.96825701 C5.47931811,6.6204916 8.11971805,9.78282755 10.9139727,11.1277545 C14.6321205,12.9162307 18.9307387,11.1277545 20.4289797,10.0374116 C21.2861078,9.49233334 21.8177717,8.55824979 21.8487788,7.54295799 C21.8512494,7.31315156 22.0275329,7.12264514 22.2564579,7.10238629 C22.485383,7.08212743 22.6923827,7.23871499 22.7351726,7.46451606 C22.7389207,8.7876605 22.0752805,10.0235062 20.9702291,10.7512332 C19.024869,12.2180974 14.4752367,13.8261572 10.5374514,11.9278623 C8.00377685,10.7120123 5.52501164,8.08420736 4.16012194,6.12315893 Z" id="Path" stroke="#92CDFA" stroke-width="0.3" fill="#92CDFA" transform="translate(13.137783, 8.771564) rotate(33.000000) translate(-13.137783, -8.771564) "></path>
                    <path d="M31.485722,54.5999461 C30.6307049,54.5999461 30.1129881,53.8155267 29.5717387,53.1252377 L29.3207245,52.8036258 C28.410798,51.6269967 17.1857568,35.1881814 14.2990936,31.0386029 C11.3261441,26.7635174 10.1965802,24.9358202 10.1338267,22.7316018 C10.2288933,20.9429992 10.6212433,19.1827265 11.2947674,17.5230572 C11.337996,17.4233125 11.4518614,17.375006 11.5536258,17.4132385 C11.6030008,17.4323988 11.6425267,17.4707156 11.6632111,17.5194718 C11.6838956,17.568228 11.6839798,17.6232776 11.6634445,17.6720969 C11.0137704,19.2834422 10.6296506,20.989464 10.5260364,22.7237576 C10.5887899,24.8181573 11.7026654,26.6458545 14.6207055,30.8189655 C17.5387456,34.9920766 28.7245658,51.3916709 29.6344923,52.5996767 L29.8541297,52.8899119 C30.6385491,53.9645664 31.2111752,54.7411416 32.8270791,53.744929 C34.725374,52.5761441 38.4344708,49.5848162 38.4893802,49.5848162 C38.5454294,49.5427793 38.6196474,49.5338374 38.6840771,49.561359 C38.7485067,49.5888806 38.7933596,49.6486844 38.80174,49.7182429 C38.8101204,49.7878014 38.7807552,49.856547 38.724706,49.8985839 C38.724706,49.8985839 34.9450114,52.8977561 33.0545607,54.0743851 C32.7484383,54.2924062 32.2254921,54.4675932 31.485722,54.5999461 Z" id="Path" stroke="#FCA120" stroke-width="0.3" fill="#FCA120"></path>
                    <path d="M48.7272598,33.1408469 C48.6723829,33.1381332 48.6211613,33.1125224 48.5860643,33.0702491 C47.9899056,32.3564275 35.1803372,14.0167026 34.5371133,12.7459432 C33.5580414,11.2575429 32.1369685,10.1135518 30.473821,9.47491443 C29.0853987,9.09054894 21.2961144,7.20794244 19.3978195,7.23147503 C18.2146298,7.27256044 17.0583027,7.59525639 16.0248162,8.17277827 C15.9645633,8.20921026 15.8894511,8.21073026 15.8277736,8.17676571 C15.7660961,8.14280116 15.7272236,8.07851208 15.7257991,8.00811555 C15.7243745,7.93771901 15.7606142,7.87190993 15.8208671,7.83547794 C16.9122718,7.21910976 18.1371254,6.87722753 19.3899753,6.83926534 C21.3274911,6.83926534 28.9912684,8.66696247 30.5679513,9.09839313 C32.3483284,9.75455853 33.8714323,10.9642439 34.9136346,12.5498384 C35.5882353,13.8284419 48.3193617,32.1054133 48.9155204,32.8113907 C48.9649971,32.870711 48.9750414,32.95355 48.9411752,33.0229756 C48.907309,33.0924012 48.8358421,33.1354786 48.7586365,33.1330027 L48.7272598,33.1408469 Z" id="Path" stroke="#FCDB7E" stroke-width="0.3" fill="#FCDB7E"></path>
                </g>
            </g>
        </g>
    </g>
</svg>